<?xml version="1.0" standalone="no"?>
<!DOCTYPE svg PUBLIC "-//W3C//DTD SVG 1.1//EN" "http://www.w3.org/Graphics/SVG/1.1/DTD/svg11.dtd">
<svg t="1775825931991" class="icon" viewBox="0 0 1024 1024" version="1.1" xmlns="http://www.w3.org/2000/svg" p-id="1302" xmlns:xlink="http://www.w3.org/1999/xlink" width="200" height="200">
  <path d="M204.8 947.2h230.4c14.336 0 25.6-11.264 25.6-25.6s-11.264-25.6-25.6-25.6H204.8a25.4464 25.4464 0 0 1-25.6-25.6V153.6a25.4464 25.4464 0 0 1 25.6-25.6h614.4a25.4464 25.4464 0 0 1 25.6 25.6v413.0304c0 14.336 11.264 25.6 25.6 25.6s25.6-11.264 25.6-25.6V153.6c0-10.5984-1.8944-20.48-5.632-29.4912a76.3904 76.3904 0 0 0-16.896-24.832 76.3392 76.3392 0 0 0-24.7808-16.896A76.288 76.288 0 0 0 819.2 76.8H204.8a76.288 76.288 0 0 0-29.4912 5.632 76.288 76.288 0 0 0-24.832 16.896 76.288 76.288 0 0 0-16.896 24.7808A76.288 76.288 0 0 0 128 153.6v716.8c0 10.5984 1.8944 20.4288 5.632 29.4912 3.7376 9.0624 9.3696 17.3056 16.896 24.832 7.4752 7.4752 15.7184 13.1072 24.7808 16.896 9.0624 3.6864 18.8928 5.5808 29.4912 5.5808z" fill="#515A62" p-id="1303"/>
  <path d="M307.2 256m25.6 0l358.4 0q25.6 0 25.6 25.6l0 102.4q0 25.6-25.6 25.6l-358.4 0q-25.6 0-25.6-25.6l0-102.4q0-25.6 25.6-25.6Z" fill="#8F969D" p-id="1304"/>
  <path d="M332.8 563.2c0-14.336 11.264-25.6 25.6-25.6h307.2c14.336 0 25.6 11.264 25.6 25.6s-11.264 25.6-25.6 25.6H358.4c-14.336 0-25.6-11.264-25.6-25.6z m25.6 179.2c-14.336 0-25.6-11.264-25.6-25.6s11.264-25.6 25.6-25.6h76.8c14.336 0 25.6 11.264 25.6 25.6s-11.264 25.6-25.6 25.6H358.4z" fill="#1595EA" p-id="1305"/>
  <path d="M512 665.6m51.2 0l307.2 0q51.2 0 51.2 51.2l0 204.8q0 51.2-51.2 51.2l-307.2 0q-51.2 0-51.2-51.2l0-204.8q0-51.2 51.2-51.2Z" fill="#1595EA" p-id="1306"/>
</svg>
